<svg id="Слой_1" data-name="Слой 1" xmlns="http://www.w3.org/2000/svg" xmlns:xlink="http://www.w3.org/1999/xlink" viewBox="0 0 2782.48 1637.1"><defs><style>.cls-1{fill:none;}.cls-2{fill:#e7f3fe;}.cls-3{fill:#303c60;}.cls-4{fill:#e38540;}.cls-28,.cls-5{fill:#6791c9;}.cls-6{clip-path:url(#clip-path);}.cls-7{fill:#75a1de;}.cls-34,.cls-8{fill:#2e5b9a;}.cls-9{fill:#f09959;}.cls-10{fill:#9bd6e8;}.cls-11{fill:#7bcee8;}.cls-12{fill:#d54a41;}.cls-13{fill:#f39892;}.cls-14{fill:#f2e5de;}.cls-15{fill:#9ec8ff;}.cls-16{fill:#fff;}.cls-17{fill:#9cd499;}.cls-18{fill:#f37168;}.cls-19{fill:#74b570;}.cls-20{fill:#a2dff2;}.cls-21{fill:#96cfe0;}.cls-22{fill:#a86b48;}.cls-23{fill:#3e6bab;}.cls-24{fill:#f0ceb4;}.cls-25{fill:#a8ceff;}.cls-26{fill:#f7a96f;}.cls-27{fill:#b7e1ff;}.cls-28,.cls-34{opacity:0.5;}.cls-29{fill:#f5ce5c;}.cls-30{fill:#4381db;}.cls-31{fill:#9cbeed;}.cls-32{fill:#dbe5eb;}.cls-33{fill:#95bef5;}</style><clipPath id="clip-path" transform="translate(-216.76 -165.45)"><path class="cls-1" d="M641.4,841.32c-294.25-17.13-530.22-328.43-373.65-509.1C389.19,192.11,551.1,396.06,702.12,293.3c232.33-158.08,608.73-186.82,658.55,12.46s-115.21,510.65-238.2,529.33S641.4,841.32,641.4,841.32Z"/></clipPath></defs><title>banner</title><path class="cls-2" d="M641.4,841.32c-294.25-17.13-530.22-328.43-373.65-509.1C389.19,192.11,551.1,396.06,702.12,293.3c232.33-158.08,608.73-186.82,658.55,12.46s-115.21,510.65-238.2,529.33S641.4,841.32,641.4,841.32Z" transform="translate(-216.76 -165.45)"/><path class="cls-3" d="M679.54,419.41c3.12,74.73,2.34,115.21-24.91,146.34S551.1,589.11,551.1,589.11s-7.52,110-114.17,114.68-121.95-137-38.4-173.33c79.53-34.58,104.83-44.63,132.33-130.25C556,322,634.39,336.9,653.08,369.59S679.54,419.41,679.54,419.41Z" transform="translate(-216.76 -165.45)"/><path class="cls-4" d="M644.51,800.84s50.34,9.86,52.94,9.34,57.6-24.91,63.31-21.28,38.92,17.65,46.18,20.76-4.15,4.15-9.85,4.15-38.41-13.49-42-10.9,28.54,7.79,28.54,9.86-86.14,21.8-91.33,21.8-45.15-3.63-45.15-3.63Z" transform="translate(-216.76 -165.45)"/><path class="cls-5" d="M602.74,525.92c27.11,5.32,43.07,34,48.26,59.15S602.74,525.92,602.74,525.92Z" transform="translate(-216.76 -165.45)"/><g class="cls-6"><path class="cls-7" d="M557.33,506.59s-52.16,35-80.18,52.16,10.12,201.61,19.46,270.11,171.26,6.23,171.26,6.23S657,777.49,671,684.85c10-66.35-26.73-107.94-47.74-136.74C570.19,475.42,557.33,506.59,557.33,506.59Z" transform="translate(-216.76 -165.45)"/><path class="cls-5" d="M506,559.53c59.94,73.17,80.2,86.85,65.39,136.22-11.68,38.92-15.57,52.93-17.9,66.17s111.31-8.57,111.31-8.57L664,796.17S574.45,839,530.86,847.54,460,846,460,846Z" transform="translate(-216.76 -165.45)"/></g><path class="cls-8" d="M1256.52,852.6H547.34a9.27,9.27,0,1,1,0-18.54h709.18a9.27,9.27,0,0,1,0,18.54Z" transform="translate(-216.76 -165.45)"/><path class="cls-9" d="M576.53,432.9l-27,79.92S579.13,593,604,575.09c8.51-6.11-3.11-54.49-3.11-54.49l18.16-64.87Z" transform="translate(-216.76 -165.45)"/><path class="cls-9" d="M490.38,556.41c-37.26,4.14-40.47,54.49-57.6,138.56s-12,139.56-3.89,150.24c19.46,25.69,238.2-63.83,265.44-63.05,18.81.53,3.12-31.14,3.12-31.14L488.83,782.93s29.58-97.3,29.58-147.12S504.4,554.85,490.38,556.41Z" transform="translate(-216.76 -165.45)"/><path class="cls-9" d="M684.21,752.58c21.8-5.45,53.71-17.91,59.94-12.46s31.92,44.37,40.48,55.27-3.89,2.33-13.23-6.23a118.79,118.79,0,0,0-17.13-13.23s-11.68,10.9-22.57,17.12-14.79-6.22-33.48-9.34S632.84,797,632.84,797Z" transform="translate(-216.76 -165.45)"/><path class="cls-7" d="M494.54,550.18c-22.84,1-40.48,20.24-46.71,49.82s-24.39,123.51-24.39,123.51-3.63,2.6,34.25,9.34,69-1,69-1,7.79-53.45,5.71-90.3S522,569.9,508.55,558,494.54,550.18,494.54,550.18Z" transform="translate(-216.76 -165.45)"/><path class="cls-4" d="M600.92,520.6l18.16-64.87L576.53,432.9,570,452.15c-1.41,64.45,15.09,86,26.22,93.88,3.47,2.46,6.46.56,9-3.46C603.39,530.89,600.92,520.6,600.92,520.6Z" transform="translate(-216.76 -165.45)"/><path class="cls-9" d="M687.33,440.43c0,34.72-4.15,77.29-34.25,76.28-46.71-1.56-76.14-37.86-76.14-72.58s24.42-62.86,54.54-62.86S687.33,405.71,687.33,440.43Z" transform="translate(-216.76 -165.45)"/><path class="cls-10" d="M1035.88,834H860.79l72-158.45A13,13,0,0,1,944.6,668h158.9a5.05,5.05,0,0,1,4.6,7.15Z" transform="translate(-216.76 -165.45)"/><path class="cls-10" d="M1035.5,834h-323a20.37,20.37,0,0,1,20.37-20.38H1035.5Z" transform="translate(-216.76 -165.45)"/><path class="cls-11" d="M1103.5,668h-140a13,13,0,0,0-11.79,7.59L879.66,834h156.22l72.22-158.89A5.05,5.05,0,0,0,1103.5,668Z" transform="translate(-216.76 -165.45)"/><path class="cls-3" d="M636,369.2c33.08-2.34,52.67,27.89,58.38,54.36,4.12,19.1,2.08,22.83,2.08,22.83s-3.63,5.19-29.58,6.75-29.06,1-29.06,1l-1.56-30.1-7.78,29.06s-4.16,5.71-20.24-2.08-23.36-33.73-23.36-33.73-3.63-17.12,8.83-28.54S636,369.2,636,369.2Z" transform="translate(-216.76 -165.45)"/><path class="cls-12" d="M611.34,447.29c-3.18,21-19.94,35.88-37.44,33.24S544.78,458.71,548,437.71s19.94-35.88,37.44-33.23S614.51,426.29,611.34,447.29Z" transform="translate(-216.76 -165.45)"/><path class="cls-13" d="M598.69,446.73C595.75,466.17,582,480.22,568,478.1s-23-19.61-20.09-39.05,16.7-33.49,30.74-31.37S601.63,427.28,598.69,446.73Z" transform="translate(-216.76 -165.45)"/><path class="cls-14" d="M577.24,442.39c-1.61,10.68-7.43,18.66-13,17.82s-8.77-10.19-7.15-20.87,7.43-18.66,13-17.82S578.85,431.7,577.24,442.39Z" transform="translate(-216.76 -165.45)"/><path class="cls-12" d="M576.4,405c15.18-56.44,67.58-48.21,80.83-40.35,11.15,6.62,12.71,16,12.71,16s-14.4-11.68-38.92-7.4c-23.27,4.06-37.11,17.78-39,32.95C591,413.91,576.4,405,576.4,405Z" transform="translate(-216.76 -165.45)"/><path class="cls-3" d="M343.52,587.19h-.11a1.2,1.2,0,0,1-1.08-1.31c1.36-14.27,8.49-28.94,20.08-41.31,13.11-14,31.75-25,53.93-31.86C465.75,497.43,508.86,478,536,394.65a1.2,1.2,0,0,1,2.28.74c-12.45,38.3-29.39,66.19-51.8,85.26-19.77,16.82-42,25.9-69.38,34.35-21.78,6.74-40.07,17.53-52.89,31.21-11.22,12-18.13,26.15-19.44,39.9A1.2,1.2,0,0,1,343.52,587.19Z" transform="translate(-216.76 -165.45)"/><path class="cls-3" d="M365.84,529.59a1.18,1.18,0,0,1-.95-.47,1.2,1.2,0,0,1,.21-1.68A144.26,144.26,0,0,1,417,504.38c58.62-12.91,98-48.16,113.8-101.92a1.2,1.2,0,1,1,2.3.68c-9.78,33.21-28.18,59.43-54.69,77.91-17.08,11.9-37.56,20.54-60.89,25.68a141.49,141.49,0,0,0-50.9,22.61A1.19,1.19,0,0,1,365.84,529.59Z" transform="translate(-216.76 -165.45)"/><path class="cls-15" d="M1117.3,512.36H959.21c-1.48,0-2.25-1.2-1.71-2.69l32.07-88.1a4.25,4.25,0,0,1,3.66-2.68h158.09c1.48,0,2.24,1.2,1.7,2.68L1121,509.67A4.24,4.24,0,0,1,1117.3,512.36Z" transform="translate(-216.76 -165.45)"/><path class="cls-16" d="M1115.39,508.24H964.11a1.7,1.7,0,0,1-1.59-2.51l29.2-80.22a4,4,0,0,1,3.42-2.5h151.27a1.69,1.69,0,0,1,1.59,2.5l-29.19,80.22A4,4,0,0,1,1115.39,508.24Z" transform="translate(-216.76 -165.45)"/><path class="cls-15" d="M1112.66,503h-142c-1.56,0-2.36-1.27-1.8-2.82L994,431.05a4.46,4.46,0,0,1,3.85-2.82h142c1.55,0,2.36,1.26,1.79,2.82L1116.5,500.2A4.47,4.47,0,0,1,1112.66,503Z" transform="translate(-216.76 -165.45)"/><ellipse class="cls-16" cx="1055.26" cy="465.62" rx="31.1" ry="21.65" transform="translate(-270.04 618.77) rotate(-39.84)"/><path class="cls-15" d="M1077.61,465.62c-4.5,12.34-18.14,22.35-30.48,22.35s-18.7-10-14.21-22.35,18.14-22.34,30.48-22.34S1082.1,453.28,1077.61,465.62Z" transform="translate(-216.76 -165.45)"/><polygon class="cls-16" points="849.95 298.98 840.07 303.69 830.18 308.41 833.62 298.98 837.05 289.55 843.5 294.26 849.95 298.98"/><path class="cls-17" d="M878,413.25H865.53a7.23,7.23,0,0,1-6.07-2.93,7.89,7.89,0,0,1-.64-7.3l4.54-12.46c1.75-4.81,6.94-8.58,11.81-8.58h12.45a7.21,7.21,0,0,1,6.07,2.92,7.87,7.87,0,0,1,.64,7.31l-4.53,12.45C888.05,409.47,882.86,413.25,878,413.25Zm-2.82-26.47c-2.84,0-6.25,2.53-7.3,5.43l-4.54,12.45a3.22,3.22,0,0,0,.07,2.91,2.54,2.54,0,0,0,2.13.88H878c2.89,0,6.23-2.49,7.3-5.43l4.53-12.46a3.2,3.2,0,0,0-.06-2.9,2.53,2.53,0,0,0-2.14-.88Z" transform="translate(-216.76 -165.45)"/><path class="cls-17" d="M858.72,466.18H846.27a7.24,7.24,0,0,1-6.07-2.92,7.91,7.91,0,0,1-.64-7.31l4.53-12.45c1.75-4.82,6.94-8.59,11.81-8.59h12.46a7.23,7.23,0,0,1,6.07,2.93,7.89,7.89,0,0,1,.64,7.3l-4.54,12.45C868.78,462.41,863.59,466.18,858.72,466.18Zm-2.82-26.47c-2.84,0-6.25,2.54-7.3,5.43l-4.53,12.45a3.23,3.23,0,0,0,.06,2.91,2.53,2.53,0,0,0,2.14.88h12.45c2.89,0,6.23-2.49,7.3-5.43l4.54-12.45a3.26,3.26,0,0,0-.06-2.91,2.54,2.54,0,0,0-2.14-.88Z" transform="translate(-216.76 -165.45)"/><path class="cls-15" d="M839.46,519.11H827a7.23,7.23,0,0,1-6.07-2.92,7.89,7.89,0,0,1-.64-7.3l4.54-12.46c1.75-4.81,6.93-8.58,11.81-8.58h12.45a7.21,7.21,0,0,1,6.07,2.92,7.89,7.89,0,0,1,.64,7.3l-4.53,12.46C849.52,515.34,844.33,519.11,839.46,519.11Zm-2.82-26.46c-2.89,0-6.23,2.48-7.3,5.42l-4.54,12.46a3.26,3.26,0,0,0,.06,2.91,2.56,2.56,0,0,0,2.14.87h12.46c2.88,0,6.23-2.48,7.3-5.42l4.53-12.46a3.23,3.23,0,0,0-.06-2.91,2.54,2.54,0,0,0-2.14-.87Z" transform="translate(-216.76 -165.45)"/><path class="cls-15" d="M980.46,403.06H912a1.59,1.59,0,0,1-1.49-2.33,3.72,3.72,0,0,1,3.19-2.34h68.5a1.59,1.59,0,0,1,1.49,2.34A3.71,3.71,0,0,1,980.46,403.06Z" transform="translate(-216.76 -165.45)"/><path class="cls-15" d="M977.06,412.4h-68.5a1.58,1.58,0,0,1-1.48-2.33,3.69,3.69,0,0,1,3.18-2.34h68.5a1.59,1.59,0,0,1,1.49,2.34A3.71,3.71,0,0,1,977.06,412.4Z" transform="translate(-216.76 -165.45)"/><path class="cls-15" d="M962.61,452.1h-68.5a1.58,1.58,0,0,1-1.48-2.33,3.69,3.69,0,0,1,3.18-2.34h68.5a1.59,1.59,0,0,1,1.49,2.34A3.71,3.71,0,0,1,962.61,452.1Z" transform="translate(-216.76 -165.45)"/><path class="cls-15" d="M959.21,461.44h-68.5a1.58,1.58,0,0,1-1.48-2.33,3.69,3.69,0,0,1,3.18-2.34h68.5a1.59,1.59,0,0,1,1.49,2.34A3.71,3.71,0,0,1,959.21,461.44Z" transform="translate(-216.76 -165.45)"/><path class="cls-15" d="M942.78,506.59h-68.5a1.58,1.58,0,0,1-1.49-2.33,3.71,3.71,0,0,1,3.19-2.34h68.5a1.58,1.58,0,0,1,1.48,2.34A3.7,3.7,0,0,1,942.78,506.59Z" transform="translate(-216.76 -165.45)"/><path class="cls-15" d="M939.38,515.93h-68.5a1.58,1.58,0,0,1-1.49-2.33,3.71,3.71,0,0,1,3.19-2.34h68.5a1.58,1.58,0,0,1,1.48,2.34A3.7,3.7,0,0,1,939.38,515.93Z" transform="translate(-216.76 -165.45)"/><path class="cls-18" d="M875.09,406.24a2.72,2.72,0,0,1-.63-.08,2.46,2.46,0,0,1-1.6-1.42l-4.7-11.68a2.4,2.4,0,0,1,4.45-1.79l3.52,8.74,27.79-21.42a2.4,2.4,0,1,1,2.93,3.8l-30.29,23.35A2.42,2.42,0,0,1,875.09,406.24Z" transform="translate(-216.76 -165.45)"/><path class="cls-18" d="M855.82,459.17a2.27,2.27,0,0,1-.63-.08,2.4,2.4,0,0,1-1.59-1.42L848.9,446a2.4,2.4,0,0,1,4.45-1.79l3.52,8.74,27.79-21.42a2.4,2.4,0,0,1,2.93,3.8l-30.3,23.35A2.38,2.38,0,0,1,855.82,459.17Z" transform="translate(-216.76 -165.45)"/><polygon class="cls-15" points="1092.01 176.11 828.9 176.11 835.7 157.43 1098.81 157.43 1092.01 176.11"/><polygon class="cls-15" points="1081.81 204.14 818.7 204.14 825.5 185.46 1088.61 185.46 1081.81 204.14"/><path class="cls-15" d="M1006.93,593.61H813.72c-2.52,0-3.84-2.06-2.92-4.59a7.29,7.29,0,0,1,6.26-4.58h193.21c2.53,0,3.84,2.06,2.92,4.58A7.27,7.27,0,0,1,1006.93,593.61Z" transform="translate(-216.76 -165.45)"/><path class="cls-15" d="M999.51,614H806.3c-2.53,0-3.84-2.07-2.92-4.6a7.28,7.28,0,0,1,6.26-4.58h193.21c2.52,0,3.84,2.06,2.92,4.58A7.29,7.29,0,0,1,999.51,614Z" transform="translate(-216.76 -165.45)"/><path class="cls-17" d="M1180.38,786.51c0-3.24,39-111.15,12.64-180.62-18.48-48.65-21.4-107-21.4-107s-36,51.56-11.67,130.36c15,48.5,21.08,61.94,22.37,76.21s-5.83,85.61-5.83,85.61Z" transform="translate(-216.76 -165.45)"/><path class="cls-19" d="M1176.49,792.25a1.18,1.18,0,0,1-.48-.1,1.2,1.2,0,0,1-.72-1.22c.07-.71,7.11-71.39,5.84-85.38-.85-9.31-3.72-18.11-10-37.39-3.23-9.88-7.25-22.17-12.31-38.57-12.65-41-8.77-74.49-3.3-95.39,6-22.69,14.77-35.48,15.14-36a1.2,1.2,0,0,1,2.18.63c0,.58,3.12,58.75,21.33,106.65,9.87,26,11.85,60.23,5.89,101.82-4.76,33.2-13.25,61.58-16.88,73.7-.82,2.76-1.54,5.15-1.58,5.59a1,1,0,0,1-.29.72l-3.89,4.54A1.22,1.22,0,0,1,1176.49,792.25Zm-5.82-289.56a131.34,131.34,0,0,0-12.87,32.23c-5.38,20.57-9.17,53.58,3.29,94,5.06,16.39,9.07,28.67,12.3,38.53,6.36,19.46,9.26,28.34,10.13,37.92,1.13,12.49-4,67-5.47,82l1.19-1.38c.14-.72.56-2.14,1.62-5.71,22.55-75.38,26.27-133.91,11-174C1176.24,565.1,1171.69,516.4,1170.67,502.69Z" transform="translate(-216.76 -165.45)"/><path class="cls-17" d="M1188.81,797.54c-5.84-120,22.7-185.49,81.07-237.38s61-65.5,61-65.5-9.08,101.17-42.8,136.2-83,61-90.15,79.12-4.54,79.13-4.54,79.13l-4.54,11Z" transform="translate(-216.76 -165.45)"/><path class="cls-17" d="M1181.67,807.91c-.64-1.94,12.33-112.2,59.67-118.68s58.37,4.54,90.8-.65a202.08,202.08,0,0,0,40.86-11s-12.28,31.26-54.48,44.1c-29.83,9.08-68.75-5.83-91.45-1.94s-34.37,52.53-34.37,52.53l-3.89,25.3Z" transform="translate(-216.76 -165.45)"/><path class="cls-19" d="M1188.16,791.6a1.19,1.19,0,0,1-1.19-1.09c-.08-.77-6.79-78.23,26.08-137.54,17-30.63,35.53-48.38,53.46-65.55,16.71-16,32.49-31.1,44.45-55a1.2,1.2,0,1,1,2.15,1.07C1301,557.76,1285,573,1268.17,589.15c-17.8,17.05-36.21,34.67-53,65-32.51,58.64-25.87,135.38-25.8,136.15a1.19,1.19,0,0,1-1.08,1.31Z" transform="translate(-216.76 -165.45)"/><path class="cls-19" d="M1184.92,776a1.33,1.33,0,0,1-.34,0,1.21,1.21,0,0,1-.82-1.49c12.42-42.79,26.67-67.75,44.84-78.57,16.25-9.67,33.05-6.7,50.83-3.56,4.35.77,8.85,1.57,13.31,2.15,38.63,5.07,57.48-4.32,57.66-4.41a1.2,1.2,0,0,1,1.62.51,1.21,1.21,0,0,1-.52,1.62c-.78.4-19.59,9.84-59.08,4.66-4.5-.59-9-1.39-13.41-2.16-17.33-3.07-33.69-6-49.18,3.26-17.62,10.48-31.53,35-43.76,77.17A1.19,1.19,0,0,1,1184.92,776Z" transform="translate(-216.76 -165.45)"/><path class="cls-19" d="M1246.86,609.68a1.18,1.18,0,0,1-.95-.47,1.19,1.19,0,0,1,.21-1.68,145.29,145.29,0,0,1,55.31-23.9,1.2,1.2,0,1,1,.46,2.36,142.59,142.59,0,0,0-54.3,23.44A1.19,1.19,0,0,1,1246.86,609.68Z" transform="translate(-216.76 -165.45)"/><path class="cls-19" d="M1210.21,661.89a1.13,1.13,0,0,1-.61-.17,1.19,1.19,0,0,1-.42-1.64c16.89-28.48,36.67-35.66,79.8-49.18a1.2,1.2,0,0,1,.72,2.29c-42.53,13.33-62,20.39-78.46,48.11A1.19,1.19,0,0,1,1210.21,661.89Z" transform="translate(-216.76 -165.45)"/><path class="cls-13" d="M1199.72,837.42h-29a21.3,21.3,0,0,1-20.93-17.31l-9.34-48.84H1230l-9.34,48.84A21.3,21.3,0,0,1,1199.72,837.42Z" transform="translate(-216.76 -165.45)"/><path class="cls-12" d="M1227.72,783.72h-84.31a2.4,2.4,0,0,1,0-4.8h84.31a2.4,2.4,0,0,1,0,4.8Z" transform="translate(-216.76 -165.45)"/><path class="cls-2" d="M1674.35,850.51s-116.77-144.8-46.71-282.59,203.19-105.1,390-245.23c226.83-170.12,386.1-179.47,588.55-105.1,114.45,42,133.13,214.87,315.3,322.3,164.22,96.85,30.36,261.58-56.05,287.27s-144.8,25.69-144.8,25.69Z" transform="translate(-216.76 -165.45)"/><path class="cls-20" d="M2369.6,539.2c-29.15,59.17-65.69,220.84-75.66,229.7s-67.55,43.19-77.52,59.8-5.53,11.07-1.1,12.18S2470,843.09,2470,843.09s-28.79-171.64-32.11-172.75S2369.6,539.2,2369.6,539.2Z" transform="translate(-216.76 -165.45)"/><path class="cls-21" d="M2328.15,842.29c46,.32,94.47.58,121.17.71l-36.56-218.63c-19.49-37.8-43.16-85.17-43.16-85.17-3.68,7.46-7.47,16.55-11.31,26.75-3.79,164.21,19.86,210.24,2.09,239.49C2346.52,828.28,2333.87,838.49,2328.15,842.29Z" transform="translate(-216.76 -165.45)"/><path class="cls-8" d="M2847.79,854.05H1646a9.27,9.27,0,0,1,0-18.54H2847.79a9.27,9.27,0,0,1,0,18.54Z" transform="translate(-216.76 -165.45)"/><path class="cls-20" d="M2523.08,467.79c41.56,38.37,134.09,74.75,134.09,74.75s14,129.89,4.46,203.43-4.26,88.46-4.26,88.46H2466.59s-25.61-35.53-72.48-146c-29.84-70.35-24.51-149.22-24.51-149.22L2485.77,487Z" transform="translate(-216.76 -165.45)"/><path class="cls-21" d="M2466.59,834.43h190.78s-5.33-14.92,4.26-88.46c7.9-60.56-.24-159.31-3.35-192.3l-17.36-7.43c-43.55,12.55-68.66,77.52-76,141-4.94,42.48-75.32,84.3-121.36,107.33C2458.65,823.41,2466.59,834.43,2466.59,834.43Z" transform="translate(-216.76 -165.45)"/><path class="cls-8" d="M2419.81,334.48c-23,51.22,4.61,98.66,3.77,96.66s34.81-86.48,34.81-86.48Z" transform="translate(-216.76 -165.45)"/><path class="cls-9" d="M2507,372.35,2536.13,479a9.67,9.67,0,0,1-1.84,8.63c-6.85,8.43-16.59,25.77-36.24,31.33a48.5,48.5,0,0,1-12.33,1.38,8.33,8.33,0,0,1-8.22-6.74L2458,412.45Z" transform="translate(-216.76 -165.45)"/><path class="cls-4" d="M2501.39,381.26l-10.66,4.37L2458,412.45l17.59,89.64C2505.39,483.49,2509.74,470.94,2501.39,381.26Z" transform="translate(-216.76 -165.45)"/><path class="cls-9" d="M2505.89,419.51c-6.45,35.07-32.7,58.79-58.61,53S2409,444,2412,398.46c2.39-35.7,20-74.51,45.91-68.7S2512.35,384.44,2505.89,419.51Z" transform="translate(-216.76 -165.45)"/><path class="cls-20" d="M2657.17,542.54c38.6,8.72,45.77,87.12,58.32,169.81,1.45,9.52,8.86,90.07,8.86,90.07a24.65,24.65,0,0,1-14,22.15c-12.61,6.31-17.72,11.07-90.81,11.81-70.19.71-160.7-2.21-160.7-2.21s-.8-26.12,6.4-38.89c10.83-19.19,121.82-46.75,132.16-48.23,1.47-20.67-10.2-95.47,5.9-146.18,11.08-34.88,23-53.16,37.9-57.93A30,30,0,0,1,2657.17,542.54Z" transform="translate(-216.76 -165.45)"/><path class="cls-21" d="M2498.51,835.76c34.6.52,82.09,1,121,.62,73.09-.74,78.2-5.5,90.81-11.81,14.77-7.38,15.51-19.93,15.51-19.93s-7.46-85.72-8.86-95.24c-8.12-55.37-16.9-118.74-37.32-149.32,19.2,56.27,22.29,103.74,22.63,124,.18,10.27-.77,24.33-3.77,34.16-3.32,10.89-11.81,17.72-25.1,14-26.58-7.38-59.8,8.13-59.8,8.13s25.1-8.86,48.72-.74,72.36,62,19.2,82C2665.26,827.72,2567.83,832.69,2498.51,835.76Z" transform="translate(-216.76 -165.45)"/><path class="cls-21" d="M2471.12,797.75s9.84-16.74,30-16.74,18.71,33,15.75,43.81-14.76,11.32-14.76,11.32l-43.32-2Z" transform="translate(-216.76 -165.45)"/><rect class="cls-7" x="1929.92" y="661.07" width="288.02" height="17.13" rx="7.49"/><path class="cls-9" d="M2465.71,799.71c-42.33-15.25-53.44-9.51-63-12.3-23.63-6.89-29.54-1-44.79,40.85-3,8.34,5.9,8.86,14.76,8.86s19.69-17.23,23.13-19.2,12.8-2.95,12.8-2.95-3,0-7.38,8.86-9.85,12.31-2.95,12.31,7.87-11.32,20.67-8.86,7.87,8.86,39.86,8.36,56.14,0,55.62-19.19c-.49-18.21,1.53-27.32-15.75-30.52C2485.39,783.47,2465.71,799.71,2465.71,799.71Z" transform="translate(-216.76 -165.45)"/><path class="cls-22" d="M2466.26,799.71c28.3-3.2,20,32.06,17,35s15.76,1,15.76,1,8.79-14.14,1.41-30.39-22.15-17-22.15-17l-12.55,6.89Z" transform="translate(-216.76 -165.45)"/><path class="cls-8" d="M2495.81,796.65c-.37,4.36-7.79,7.31-16.58,6.58S2463.6,798.35,2464,794s7.78-7.31,16.58-6.58S2496.17,792.28,2495.81,796.65Z" transform="translate(-216.76 -165.45)"/><path class="cls-23" d="M2493.56,794.47c-.33,3.91-7,6.54-14.82,5.88s-14-4.35-13.63-8.25,7-6.54,14.81-5.88S2493.88,790.57,2493.56,794.47Z" transform="translate(-216.76 -165.45)"/><path class="cls-24" d="M2488.65,792.66c-.23,2.81-5,4.71-10.66,4.24s-10-3.14-9.82-5.95,5-4.7,10.67-4.23S2488.88,789.85,2488.65,792.66Z" transform="translate(-216.76 -165.45)"/><path class="cls-7" d="M2144.18,789.57H1869.12a30.11,30.11,0,0,1-29.49-24.91l-35.87-198c-3.38-18.67,10.76-35.89,29.49-35.89h275.06a30.09,30.09,0,0,1,29.48,24.91l35.88,198C2177.05,772.35,2162.91,789.57,2144.18,789.57Z" transform="translate(-216.76 -165.45)"/><path class="cls-25" d="M2157,754.42,2120.42,560.5c-2.67-14.13-15.33-24.39-30.1-24.39H1810.8a30.85,30.85,0,0,0-7,25.85l37.13,202.18a31,31,0,0,0,30.53,25.43h255.5C2146.05,789.57,2160.48,772.71,2157,754.42Z" transform="translate(-216.76 -165.45)"/><path class="cls-7" d="M2090.71,816.08h-52.22c-9.31,0-16.86-8.29-16.86-18.52V702.09c0-16.28-12-29.48-26.84-29.48h-27.27c-14.83,0-26.84,13.2-26.84,29.48V809c0,18.29,13.54,33.08,30.19,33l142.5-1C2113.37,827.23,2103.22,816.08,2090.71,816.08Z" transform="translate(-216.76 -165.45)"/><path class="cls-25" d="M1942.75,704.23V809.51a32.46,32.46,0,0,0,30.1,32.36l139.07-.87c0-2.28-11-6.43-24.52-6.43h-56.48a18.24,18.24,0,0,1-18.24-18.24V704.23a29,29,0,0,0-29-29h-11.86A29,29,0,0,0,1942.75,704.23Z" transform="translate(-216.76 -165.45)"/><path class="cls-9" d="M2233.86,804c21-11.68,46.71-7.78,56,3.89s10.9,19.46-10.12,19.46-63.05,1.56-70.06.78S2233.86,804,2233.86,804Z" transform="translate(-216.76 -165.45)"/><path class="cls-9" d="M2265,797c22.57-5.45,38,7.68,56.83,20.23,16.34,10.9,19.63,21.5,1.55,12.46-26.46-13.23-42-14.79-42-14.79Z" transform="translate(-216.76 -165.45)"/><path class="cls-9" d="M2244.44,803.88c-11.4,0-21.35-3.64-29.4-3s-33.53,26.83-29.51,28.84a7.38,7.38,0,0,0,.94.4,13.73,13.73,0,0,0,16.29-5.71c3.61-5.79,9.47-12.52,16.3-10.11a72.53,72.53,0,0,0,23.37,3.63Z" transform="translate(-216.76 -165.45)"/><path class="cls-26" d="M2237.75,832c-11.67-4.68,7-43.6,13.24-43.6s29.58,18.69,29.58,18.69-5.49,3.09-24.13-3.12c-4.67-1.56-8.56,24.91-14,28S2237.75,832,2237.75,832Z" transform="translate(-216.76 -165.45)"/><path class="cls-8" d="M2412,419c-1.08,42.86,13.52,50.11,23.73,55.93s54.22-3.8,60.68-14.4c16.52-27.12,2.61-52.4,6.31-52s7.08,10.94,16.71,24.64c.9,1.28,7.16,9.74,7.49,6.93,4.47-38.38,24.46-50.3,19.7-89.12-3.51-28.62-21.67-26.34-21.67-26.34s-11.72-23.95-48.2-21.23c-24.44,1.82-46.23,11.34-71.42,17.83s29.8,63.59,62.48,42.72,16.55,25.1,21.7,28.66,2.48.47,4.85,24-27.5,38.87-36.06,40.88c-27.37,6.44-32,1.93-37.94-8.38C2415.18,440.11,2412,419,2412,419Z" transform="translate(-216.76 -165.45)"/><path class="cls-9" d="M2525.31,405.69c-3.14,10.8-10.82,17.78-17.14,15.59s-6.51-11-5.77-23.53c.67-11.33,10.81-17.78,17.14-15.59S2528.45,394.89,2525.31,405.69Z" transform="translate(-216.76 -165.45)"/><rect class="cls-27" x="1472.24" y="101.49" width="242.86" height="109.75" rx="4.6"/><rect class="cls-16" x="1478.88" y="130.32" width="229.58" height="75.77" rx="3.72"/><rect class="cls-16" x="1482.26" y="109.56" width="9.51" height="8.56" rx="2.06"/><rect class="cls-16" x="1499.55" y="109.56" width="9.51" height="8.56" rx="2.06"/><rect class="cls-16" x="1516.85" y="109.56" width="9.51" height="8.56" rx="2.06"/><path class="cls-27" d="M1915.88,312.38H1794.44a3.64,3.64,0,0,1,0-7.27h121.44a3.64,3.64,0,0,1,0,7.27Z" transform="translate(-216.76 -165.45)"/><path class="cls-27" d="M1824.54,368.42H1703.11a3.63,3.63,0,1,1,0-7.26h121.43a3.63,3.63,0,1,1,0,7.26Z" transform="translate(-216.76 -165.45)"/><rect class="cls-27" x="1616.35" y="195.71" width="15.05" height="7.27" rx="1.24"/><rect class="cls-27" x="1635.29" y="195.71" width="15.05" height="7.27" rx="1.24"/><path class="cls-27" d="M1917,328.21H1716a2.47,2.47,0,0,1,0-4.93H1917a2.47,2.47,0,1,1,0,4.93Z" transform="translate(-216.76 -165.45)"/><path class="cls-27" d="M1917,338.84H1716a2.47,2.47,0,0,1,0-4.93H1917a2.47,2.47,0,1,1,0,4.93Z" transform="translate(-216.76 -165.45)"/><path class="cls-15" d="M1531.72,178.55h233.65a4.6,4.6,0,0,1,4.6,4.6V283.69a4.61,4.61,0,0,1-4.61,4.61H1531.73a4.61,4.61,0,0,1-4.61-4.61V183.15A4.61,4.61,0,0,1,1531.72,178.55Z"/><rect class="cls-16" x="1533.76" y="207.38" width="229.58" height="75.77" rx="3.72"/><rect class="cls-16" x="1537.13" y="186.62" width="9.51" height="8.56" rx="2.06"/><rect class="cls-16" x="1554.43" y="186.62" width="9.51" height="8.56" rx="2.06"/><rect class="cls-16" x="1571.73" y="186.62" width="9.52" height="8.56" rx="2.06"/><path class="cls-15" d="M1970.75,389.44H1849.32a3.64,3.64,0,0,1,0-7.27h121.43a3.64,3.64,0,1,1,0,7.27Z" transform="translate(-216.76 -165.45)"/><path class="cls-15" d="M1879.42,445.49H1758a3.64,3.64,0,0,1,0-7.27h121.44a3.64,3.64,0,0,1,0,7.27Z" transform="translate(-216.76 -165.45)"/><rect class="cls-15" x="1671.22" y="272.77" width="15.05" height="7.27" rx="1.24"/><rect class="cls-15" x="1690.17" y="272.77" width="15.05" height="7.27" rx="1.24"/><path class="cls-15" d="M1971.92,405.27H1770.83a2.47,2.47,0,1,1,0-4.93h201.09a2.47,2.47,0,1,1,0,4.93Z" transform="translate(-216.76 -165.45)"/><path class="cls-15" d="M1971.92,415.91H1770.83a2.47,2.47,0,1,1,0-4.93h201.09a2.47,2.47,0,1,1,0,4.93Z" transform="translate(-216.76 -165.45)"/><path class="cls-17" d="M2073.14,426.9a31.53,31.53,0,1,1-31.53-31.53A31.53,31.53,0,0,1,2073.14,426.9Z" transform="translate(-216.76 -165.45)"/><path class="cls-16" d="M2038.48,438.54h-.09a2.42,2.42,0,0,1-1.71-.81l-8.56-9.73a2.4,2.4,0,1,1,3.6-3.17l6.89,7.83,16.49-16.13a2.4,2.4,0,0,1,3.36,3.43l-18.3,17.9A2.39,2.39,0,0,1,2038.48,438.54Z" transform="translate(-216.76 -165.45)"/><rect class="cls-15" x="1848.58" y="24.71" width="219.13" height="90.3" rx="9.34"/><path class="cls-15" d="M2091.8,266.83v49.82l57.41-57.4S2093,266.83,2091.8,266.83Z" transform="translate(-216.76 -165.45)"/><rect class="cls-16" x="1859.91" y="33.66" width="196.46" height="72.39" rx="7.92"/><path class="cls-15" d="M2183.66,217h-88.74a3.9,3.9,0,1,1,0-7.79h88.74a3.9,3.9,0,0,1,0,7.79Z" transform="translate(-216.76 -165.45)"/><rect class="cls-15" x="1874.27" y="62.07" width="168.92" height="4.37" rx="2.16"/><rect class="cls-15" x="1874.27" y="70.54" width="168.92" height="4.37" rx="2.16"/><rect class="cls-15" x="1999.55" y="94.38" width="9.51" height="8.56" rx="2.06"/><rect class="cls-15" x="2016.85" y="94.38" width="9.51" height="8.56" rx="2.06"/><rect class="cls-15" x="2034.15" y="94.38" width="9.51" height="8.56" rx="2.06"/><path class="cls-2" d="M1841.14,1789.46s-288.19-181-91.23-375.08,460.53-392.46,637.21-315.71S2547.9,1272.46,2742,1412.93s149.17,252,114.41,308.47-40.55,71-40.55,71Z" transform="translate(-216.76 -165.45)"/><path class="cls-3" d="M2061.27,1275.63c42.67-38,74-15.34,97.35,10,18.6,20.2,21.2,24.68,36.57,45.6,2.28,3.11,4,6.56,4.11,10.41.43,23.14,12.26,120.95-.89,154.7-15.34,39.34-204.49,57.35-204.49,57.35Z" transform="translate(-216.76 -165.45)"/><path class="cls-3" d="M2182.4,1518.74a2,2,0,0,1-.09-3.9c5.61-.28,10.18-2.8,14-7.71,21.21-27.48,9.29-119.21-1.1-169.09a1.95,1.95,0,1,1,3.81-.79c2.27,10.89,9.86,49.55,12.23,89.82,2.43,41.37-1.56,69.1-11.85,82.44-4.46,5.78-10.13,8.89-16.86,9.23Z" transform="translate(-216.76 -165.45)"/><path class="cls-3" d="M2077.27,1264.29c-82,45.35-32,198.71-136,253.39-28.81,15.15-117.35,92-59.34,193.37,37.95,66.3,151.36,52,188.7-6.67S2077.27,1264.29,2077.27,1264.29Z" transform="translate(-216.76 -165.45)"/><path class="cls-3" d="M1859,1613l-.26,0a2,2,0,0,1-1.68-2.19c.08-.54,1.86-13.44,10-30.56a134,134,0,0,1,49.08-55.28c48.13-30.63,80.08-59.5,117.86-201.79a1.95,1.95,0,1,1,3.76,1c-18.25,68.76-36.35,115.24-57,146.28-19.14,28.83-38.82,42.68-62.57,57.79-50,31.82-57.28,82.57-57.35,83.08A2,2,0,0,1,1859,1613Z" transform="translate(-216.76 -165.45)"/><path class="cls-3" d="M1860.8,1573.26a1.9,1.9,0,0,1-1-.3,1.93,1.93,0,0,1-.6-2.68,148.49,148.49,0,0,1,45-45.9c67.59-43.71,78.78-68.84,134.6-212.78a2,2,0,0,1,3.64,1.41c-27.92,72-44.6,114.13-62.84,144-19.6,32.1-41.71,50.2-73.28,70.62a144.59,144.59,0,0,0-43.85,44.71A2,2,0,0,1,1860.8,1573.26Z" transform="translate(-216.76 -165.45)"/><path class="cls-9" d="M2074.44,1360c-28.24,58.65-23.9,111.87-23.9,111.87s3.26,20.63,16.3,25,31.49-8.69,30.41-26.07,4.34-59.73,10.86-74.94S2074.44,1360,2074.44,1360Z" transform="translate(-216.76 -165.45)"/><path class="cls-5" d="M1925.24,1767.51c1.78,16-2.22,14.67,12,17.33s39.57-7.11,39.57-7.11l-28.45-52.9Z" transform="translate(-216.76 -165.45)"/><path class="cls-9" d="M2054,1440.37c-8,26-68,6-89,12s-39,94-42,173,1,142,9,152,140,14,152,10-100-54-100-54-7-92,2-139,90-109,90-109Z" transform="translate(-216.76 -165.45)"/><path class="cls-9" d="M2082,1448.37c21,32,76,28,95,54s59,169,59,169l42-145s34.06-5.72,23,18c-19.68,42.19-27,178.33-48.35,197.67-23.73,21.5-47.34,4-60.67-33.65-12.89-36.42-45-115-68-145s-48-78-48-78Z" transform="translate(-216.76 -165.45)"/><path class="cls-7" d="M1990.94,1452.37c42,49,124,47,142,41l18-6s14-5,26,9,41,102,46,122,13,53,13,53-21.46,25.75-21.46,51.76,9.11,26.22,9.11,26.22-26.66-6-32.66-22-60-161-60-161l-149,3,2,164s-13-12-31,0-24,40-21,44-6,4-6,1-17-76-5-196,35-133,48-134A42.24,42.24,0,0,1,1990.94,1452.37Z" transform="translate(-216.76 -165.45)"/><path class="cls-5" d="M2217.53,1747.32a1.49,1.49,0,0,0,.45.1Z" transform="translate(-216.76 -165.45)"/><path class="cls-5" d="M2223.3,1675c-8.67,2.67-23.34,33.34-23.34,33.34s-33.34-72.68-43.34-173.36l-11.9,68.3c16.43,44.11,42.21,113.32,46.25,124.1,5.49,14.63,27.63,20.74,30.66,21.42-.83-.28-2.66-1.39-4.18-5.79-.87-.79-5.88-3.13-6.82-4-8-7.34-4.67-24.67.67-44S2232,1672.38,2223.3,1675Z" transform="translate(-216.76 -165.45)"/><path class="cls-5" d="M1989.11,1569.25l-16.53-75.58c-18,25.34-20,112-12.66,171.37,6,48.67,15,61.3,21.19,66.38a17.42,17.42,0,0,1,2.83,2l-2-164Z" transform="translate(-216.76 -165.45)"/><path class="cls-7" d="M1941.24,1493c30.68,82.68,15.34,99.35,55.7,196.4,22.55,54.2,66,95,66,95s35,9,79,6,76.23-6,76.23-6-46.22-28-48.22-47-10.68-94.38.65-147.73c8.86-41.65-27.66-83.31-27.66-83.31l-61-3Z" transform="translate(-216.76 -165.45)"/><path class="cls-28" d="M1995.26,1619.7c-5.34-19.34,22.67,6,68.68,10.67s97.35-2.67,72,5.33-94.69-4-82,21.34c14.91,29.82,32.52,58.68,58,76,16.67,11.33,56.67,22,18,16s-80-51.34-98-80.68S1996.45,1624,1995.26,1619.7Z" transform="translate(-216.76 -165.45)"/><path class="cls-4" d="M2097.13,1463.17c.41-20,5.28-54,11-67.33,4.67-10.89-14.64-24.57-26-31.46l-9.57-.41c-1.46,3.18-2.83,6.35-4.11,9.48-10.11,66.38,20.15,93.81,34.58,99.33,6.24,2.38,13.22,2.65,19.19,2.11C2113.32,1471.72,2104.64,1468.12,2097.13,1463.17Z" transform="translate(-216.76 -165.45)"/><path class="cls-29" d="M2078.82,1492.68a45.19,45.19,0,0,1-10.65-1.29c-8.35-2-28.25-9.76-32.88-37.54a1.1,1.1,0,0,1,2.17-.37c4.42,26.48,23.31,33.83,31.23,35.77,12.31,3,25.36.22,30.37-6.46,4-5.36,1.61-16.77,1.58-16.89a1.11,1.11,0,0,1,2.16-.47c.11.51,2.65,12.52-2,18.68C2096.73,1489.58,2088.28,1492.68,2078.82,1492.68Z" transform="translate(-216.76 -165.45)"/><path class="cls-9" d="M2172.93,1386.09c-6.78,35.83-22.45,64.73-49,59.28s-54.39-43.29-47.05-79,34.78-60.26,61.3-54.81S2182,1338.36,2172.93,1386.09Z" transform="translate(-216.76 -165.45)"/><path class="cls-9" d="M2267.31,1563s-49,131.69-51.34,145.36,2.33,22.34,3.66,22.34,43-71.34,43-71.34Z" transform="translate(-216.76 -165.45)"/><path class="cls-9" d="M2269.31,1557.24c4-13.33-2.22-30.23-2.22-30.23l17.78,2.23Z" transform="translate(-216.76 -165.45)"/><path class="cls-30" d="M2288.85,1534.5h-49.62a4.5,4.5,0,0,1-4.31-5.79l31.32-105a4.5,4.5,0,0,1,4.31-3.21h49.62a4.5,4.5,0,0,1,4.31,5.79l-31.32,105A4.5,4.5,0,0,1,2288.85,1534.5Z" transform="translate(-216.76 -165.45)"/><path class="cls-8" d="M2295.07,1534.5h-49.61a4.51,4.51,0,0,1-4.32-5.79l31.32-105a4.52,4.52,0,0,1,4.32-3.21h49.61a4.51,4.51,0,0,1,4.32,5.79l-31.32,105A4.51,4.51,0,0,1,2295.07,1534.5Z" transform="translate(-216.76 -165.45)"/><path class="cls-31" d="M2259.15,1458.38c-5.29,19.06-8.85,34.71-8,35s5.91-15,11.2-34.06,8.85-34.71,7.95-35S2264.44,1439.32,2259.15,1458.38Z" transform="translate(-216.76 -165.45)"/><path class="cls-9" d="M2292.87,1565.69c1.47-17.32,16.47-33.55,22.18-38.73a8.23,8.23,0,0,0,2.69-6.15c-.08-8.63-.47-29-2.25-31.39-2.27-3-8-42.05-10.61-40.54s.76,35.61.76,35.61-6.44-3-9.85-4.54-17.43,14-17.43,14-6.57,16.61,11.4,9.5c21.34-8.45,5.33,15.11-8.89,30.22-11.72,12.46-1.75,15.21-1.75,15.21l9.47-.38Z" transform="translate(-216.76 -165.45)"/><path class="cls-29" d="M2287.5,1579.31a17.54,17.54,0,0,1-5.15-.8c-4.61-1.43-12.67-6.08-14.8-21a1.11,1.11,0,1,1,2.19-.31c1.82,12.76,8,17.41,12.88,19.07,4,1.36,7.27.73,8.1.27a1.11,1.11,0,0,1,2.12-.26,1.57,1.57,0,0,1-.35,1.66C2291.72,1578.78,2289.84,1579.31,2287.5,1579.31Z" transform="translate(-216.76 -165.45)"/><path class="cls-29" d="M2285.64,1575a30.6,30.6,0,0,1-4.48-.33c-8.57-1.24-14.32-5.59-15.76-11.93a1.1,1.1,0,1,1,2.15-.49c1.38,6,6.88,8.62,11.25,9.71,6.13,1.53,11.89.59,12.57-.21a1.09,1.09,0,0,1,1.5-.4,1.12,1.12,0,0,1,.41,1.52C2292.46,1574.36,2289.24,1575,2285.64,1575Z" transform="translate(-216.76 -165.45)"/><path class="cls-16" d="M2142.5,1404.74a11.19,11.19,0,0,1-1.63-.13c-8.42-1.29-13.5-12.14-11.58-24.71a29.55,29.55,0,0,1,6.51-14.89c3.52-4,7.76-5.87,11.93-5.23,8.42,1.29,13.5,12.14,11.57,24.71C2157.5,1396.25,2150.31,1404.74,2142.5,1404.74Zm3.63-41.18c-2.5,0-5.1,1.4-7.39,4a25.55,25.55,0,0,0-5.59,12.91c-1.54,10.06,2.26,19.34,8.31,20.27s12.45-6.8,14-16.86-2.26-19.34-8.31-20.27A6.77,6.77,0,0,0,2146.13,1363.56Z" transform="translate(-216.76 -165.45)"/><path class="cls-16" d="M2170.24,1404.79a5.29,5.29,0,0,1-.8-.06c-5.51-.85-8.5-10.18-6.81-21.25s7.36-19.1,12.85-18.24c2.84.44,5.07,3,6.29,7.32a33.75,33.75,0,0,1,.51,13.93C2180.67,1397,2175.48,1404.79,2170.24,1404.79Zm4.43-36.66c-3.25,0-7.66,6.25-9.13,15.8-1.51,9.92,1.07,17.38,4.34,17.88s8-5.85,9.49-15.77a30.82,30.82,0,0,0-.43-12.67c-.87-3.07-2.3-5-3.9-5.21A2.31,2.31,0,0,0,2174.67,1368.13Z" transform="translate(-216.76 -165.45)"/><path class="cls-16" d="M2133.28,1371.6a2,2,0,0,1-.53-.08l-65.35-18.67a1.95,1.95,0,0,1,1.07-3.75l65.35,18.68a1.95,1.95,0,0,1-.54,3.82Z" transform="translate(-216.76 -165.45)"/><path class="cls-3" d="M2180,1331c-101.13,59.57-106.69,19.56-106.69,19.56l6-56.9,60,3.34Z" transform="translate(-216.76 -165.45)"/><path class="cls-9" d="M2081.1,1363.75c2.35,10.07-.86,19.43-7.18,20.91s-13.34-5.49-15.7-15.56.86-19.43,7.18-20.91S2078.74,1353.69,2081.1,1363.75Z" transform="translate(-216.76 -165.45)"/><path class="cls-29" d="M2074.17,1377a4,4,0,1,1-4-4A4,4,0,0,1,2074.17,1377Z" transform="translate(-216.76 -165.45)"/><path class="cls-8" d="M2854.35,1802.55H1842.72a9.27,9.27,0,0,1,0-18.54H2854.35a9.27,9.27,0,0,1,0,18.54Z" transform="translate(-216.76 -165.45)"/><path class="cls-32" d="M2082.51,1782.22s-38.13.49-38.62,3.86,1.45,4.83,15,7.25,165.57,3.38,167,2.41,45.86-11.59,45.86-11.59l-106.68-1.93Z" transform="translate(-216.76 -165.45)"/><path class="cls-9" d="M2103.28,1756.84s27.34-12,35.34-6.67,31.12,29.79,31.12,29.79Z" transform="translate(-216.76 -165.45)"/><path class="cls-8" d="M2168.23,1782.13c-.52.65-1.3.92-1.73.6l-56.26-41.88c-3-2.26-4.47-5.71-3-7.53s5.14-1.17,8,1.29l53.2,45.7C2168.84,1780.67,2168.75,1781.48,2168.23,1782.13Z" transform="translate(-216.76 -165.45)"/><path class="cls-9" d="M2020.59,1751.73s45.35,18,50.68,18,35.12-20,45.12-17.34,58.9,27.34,57.57,29.34-15.34,6.67-56.68,5.34-108.69-7.34-108.69-7.34Z" transform="translate(-216.76 -165.45)"/><path class="cls-18" d="M2186.43,1580.23h184.81a12.48,12.48,0,0,1,12.48,12.48v14.15a12.48,12.48,0,0,1-12.48,12.48H2186.43a5,5,0,0,1-5-5V1585.2A5,5,0,0,1,2186.43,1580.23Z"/><path class="cls-14" d="M2573.71,1752.29H2398.24a13.44,13.44,0,0,0-1.95,7v12a13.44,13.44,0,0,0,1.95,7h175.47a11.37,11.37,0,0,0,11.33-11.33v-3.21A11.37,11.37,0,0,0,2573.71,1752.29Z" transform="translate(-216.76 -165.45)"/><path class="cls-11" d="M2224.51,1556.57h140.54a8.42,8.42,0,0,1,8.42,8.42v6.81a8.42,8.42,0,0,1-8.42,8.42H2224.51a3.36,3.36,0,0,1-3.36-3.36v-16.94A3.36,3.36,0,0,1,2224.51,1556.57Z"/><path class="cls-14" d="M2570.07,1726H2437.94a7,7,0,0,0-1.47,4.21v7.22a7,7,0,0,0,1.47,4.21h132.13c4.7,0,8.53-3.08,8.53-6.85v-1.94C2578.6,1729.11,2574.77,1726,2570.07,1726Z" transform="translate(-216.76 -165.45)"/><path class="cls-15" d="M2605.85,1243.74H2456c-4.78,0-7.26-3.91-5.53-8.69l22.67-62.28c1.74-4.78,7.07-8.69,11.85-8.69h149.89c4.78,0,7.27,3.91,5.53,8.69l-22.67,62.28C2616,1239.83,2610.63,1243.74,2605.85,1243.74Z" transform="translate(-216.76 -165.45)"/><path class="cls-16" d="M2600.77,1237.22h-135c-4.14,0-6.3-3.39-4.79-7.53l18.77-51.56c1.51-4.14,6.12-7.53,10.26-7.53h135c4.14,0,6.3,3.39,4.79,7.53L2611,1229.69C2609.53,1233.83,2604.91,1237.22,2600.77,1237.22Z" transform="translate(-216.76 -165.45)"/><path class="cls-15" d="M2515.45,1240.12c-12.43,32.82-31.57,43-31.57,43s13.61-18.83,11.64-28a20.22,20.22,0,0,0-9.26-13Z" transform="translate(-216.76 -165.45)"/><path class="cls-15" d="M2611.61,1189h-87a1.76,1.76,0,0,1-1.65-2.6l0-.12a4.12,4.12,0,0,1,3.54-2.6h87a1.76,1.76,0,0,1,1.65,2.6l0,.12A4.12,4.12,0,0,1,2611.61,1189Z" transform="translate(-216.76 -165.45)"/><path class="cls-15" d="M2607.57,1200.05h-87a1.76,1.76,0,0,1-1.65-2.6l0-.12a4.12,4.12,0,0,1,3.54-2.59h87a1.76,1.76,0,0,1,1.65,2.59l0,.12A4.12,4.12,0,0,1,2607.57,1200.05Z" transform="translate(-216.76 -165.45)"/><path class="cls-15" d="M2603,1212.6h-87a1.76,1.76,0,0,1-1.65-2.6l0-.12a4.14,4.14,0,0,1,3.54-2.59h87a1.75,1.75,0,0,1,1.64,2.59l0,.12A4.12,4.12,0,0,1,2603,1212.6Z" transform="translate(-216.76 -165.45)"/><path class="cls-15" d="M2511,1197.88c-3.45,9.46-12.5,17.13-20.24,17.13s-11.2-7.67-7.76-17.13,12.51-17.14,20.24-17.14S2514.47,1188.41,2511,1197.88Z" transform="translate(-216.76 -165.45)"/><path class="cls-15" d="M2520.65,1405.69h-7.42c-1.57,0-2.38-1.27-1.81-2.84l2.23-6.12a4.48,4.48,0,0,1,3.87-2.84H2525c1.57,0,2.38,1.27,1.8,2.84l-2.22,6.12A4.5,4.5,0,0,1,2520.65,1405.69Z" transform="translate(-216.76 -165.45)"/><path class="cls-15" d="M2544.49,1405.69h-7.43c-1.57,0-2.38-1.27-1.81-2.84l2.23-6.12a4.49,4.49,0,0,1,3.87-2.84h7.43c1.57,0,2.38,1.27,1.81,2.84l-2.23,6.12A4.48,4.48,0,0,1,2544.49,1405.69Z" transform="translate(-216.76 -165.45)"/><path class="cls-15" d="M2568.32,1405.69h-7.42c-1.57,0-2.38-1.27-1.81-2.84l2.23-6.12a4.48,4.48,0,0,1,3.87-2.84h7.43c1.57,0,2.38,1.27,1.8,2.84l-2.22,6.12A4.5,4.5,0,0,1,2568.32,1405.69Z" transform="translate(-216.76 -165.45)"/><path class="cls-15" d="M2426.21,1358.63H2276.32c-4.78,0-7.26-3.91-5.52-8.69l22.66-62.28c1.74-4.78,7.08-8.69,11.85-8.69H2455.2c4.78,0,7.27,3.91,5.53,8.69l-22.67,62.28C2436.33,1354.72,2431,1358.63,2426.21,1358.63Z" transform="translate(-216.76 -165.45)"/><path class="cls-16" d="M2421.13,1352.11h-135c-4.14,0-6.29-3.39-4.79-7.53l18.77-51.56c1.51-4.14,6.13-7.53,10.27-7.53h135c4.14,0,6.29,3.39,4.79,7.53l-18.77,51.56C2429.89,1348.72,2425.27,1352.11,2421.13,1352.11Z" transform="translate(-216.76 -165.45)"/><path class="cls-15" d="M2283.92,1355c-11.47,32.83.29,43,.29,43s.09-18.83,8.74-28a56.67,56.67,0,0,1,18.75-13Z" transform="translate(-216.76 -165.45)"/><path class="cls-15" d="M2384.5,1308.18h-73.43a1.63,1.63,0,0,1-1.52-2.39l.2-.53a3.8,3.8,0,0,1,3.26-2.39h73.42a1.62,1.62,0,0,1,1.52,2.39l-.19.53A3.81,3.81,0,0,1,2384.5,1308.18Z" transform="translate(-216.76 -165.45)"/><path class="cls-15" d="M2380.46,1319.28H2307a1.62,1.62,0,0,1-1.52-2.39l.2-.53A3.79,3.79,0,0,1,2309,1314h73.42a1.62,1.62,0,0,1,1.52,2.39l-.19.53A3.79,3.79,0,0,1,2380.46,1319.28Z" transform="translate(-216.76 -165.45)"/><path class="cls-15" d="M2375.89,1331.83h-73.43a1.62,1.62,0,0,1-1.52-2.39l.2-.53a3.8,3.8,0,0,1,3.26-2.39h73.42a1.62,1.62,0,0,1,1.52,2.39l-.19.53A3.79,3.79,0,0,1,2375.89,1331.83Z" transform="translate(-216.76 -165.45)"/><path class="cls-15" d="M2562.75,1429.1H2418.08c-2.59,0-3.94-1.07-3-2.39l.39-.53c.94-1.31,3.83-2.39,6.42-2.39h144.67c2.59,0,3.93,1.08,3,2.39l-.38.53C2568.23,1428,2565.34,1429.1,2562.75,1429.1Z" transform="translate(-216.76 -165.45)"/><path class="cls-15" d="M2554.79,1447.45H2410.12c-2.59,0-3.94-1.08-3-2.39l.38-.53c.95-1.32,3.84-2.39,6.43-2.39h144.66c2.59,0,3.94,1.07,3,2.39l-.38.53C2560.27,1446.37,2557.38,1447.45,2554.79,1447.45Z" transform="translate(-216.76 -165.45)"/><path class="cls-15" d="M2410,1336.18h-10.62c-4.77,0-7.26-3.91-5.52-8.69l7.9-21.72c1.74-4.78,7.08-8.69,11.86-8.69h10.62c4.78,0,7.26,3.91,5.52,8.69l-7.9,21.72C2420.12,1332.27,2414.78,1336.18,2410,1336.18Z" transform="translate(-216.76 -165.45)"/><path class="cls-17" d="M2780.5,1756c19.28-105.78,15.06-143.62-36.58-230s-56.57-247-76-199.91S2651,1491.6,2712.05,1549s69.21,83.16,72.84,106.53-8.72,95.23-8.72,95.23Z" transform="translate(-216.76 -165.45)"/><path class="cls-19" d="M2790.16,1687.82l.09-1.21c-1.13-8.68-7.26-53.32-15.74-70.93-9.41-19.55-50.69-53.58-62.27-96.3s-29.95-75.84-42-102.83c-15.91-35.63-7.21-83,5.94-98.38a3.2,3.2,0,0,0-1-.45l-4.37,2.64a30.32,30.32,0,0,0-3,5.75C2648.42,1373.24,2651,1491.6,2712,1549s69.22,83.16,72.85,106.53c1,6.31.79,16.15,0,27.15Z" transform="translate(-216.76 -165.45)"/><path class="cls-17" d="M2754.15,1737.33c14.34-124.32,9.56-167.35-18.17-266.81s153-326.09,147.27-286.88-24.87,136.75-74.59,197.95-53.55,110.93-44,163.53-1.91,175-1.91,175l-5.74,22Z" transform="translate(-216.76 -165.45)"/><path class="cls-19" d="M2760.75,1685.67h0a1.21,1.21,0,0,1-1.16-1.25c0-.38,1.44-38.7.73-70.16s-9.25-85.44-14.44-104c-4.73-16.88-10.67-73.48,18.18-131.92,14.37-29.11,25.84-47.52,41.72-73,15.69-25.18,35.22-56.51,66.2-111.71a1.2,1.2,0,0,1,2.09,1.17c-31,55.25-50.55,86.61-66.26,111.81-15.84,25.41-27.28,43.78-41.6,72.78-28.52,57.77-22.68,113.58-18,130.21,5.22,18.65,13.81,72.91,14.52,104.57s-.71,69.92-.72,70.31A1.2,1.2,0,0,1,2760.75,1685.67Z" transform="translate(-216.76 -165.45)"/><path class="cls-17" d="M2758.93,1782c8.61-83.2,10.05-42.17-25.7-155.21-40.9-129.38,105.07-244.24,129-197.38s51.64,194.13,41.12,189.35S2823,1477.22,2821.09,1483s-94.67,53.55-90.85,102.32,39.21,126.23,39.21,126.23l-1,71.44Z" transform="translate(-216.76 -165.45)"/><path class="cls-19" d="M2768.49,1782h-.12l-9.56-1a1.2,1.2,0,0,1-.81-.43,1.18,1.18,0,0,1-.26-.88c1-9.62,1.91-17.71,2.65-24.21,4-35.33,4-35.33-7-65.59-5-13.67-11.74-32.4-21.34-62.75a154.71,154.71,0,0,1-5.51-69.94,179.17,179.17,0,0,1,21.31-61.22c18.94-33.84,48.74-62.91,75.92-74,18.89-7.74,33.28-5.22,39.47,6.92,10.15,19.89,22.28,60.61,32.45,108.94,5.88,27.89,14.51,76.46,9.6,81.58a2.11,2.11,0,0,1-2.5.46c-5.74-2.61-24.74-36.14-50.95-83.22-13.15-23.61-26.71-48-30.37-52.17-1.48,1.64-5.2,4.21-12.92,9.45-26,17.62-80.05,54.29-77.15,91.29,3.76,48,38.75,125,39.1,125.82a1.16,1.16,0,0,1,.11.52l-1,69.26a1.21,1.21,0,0,1-1.2,1.19Zm-8.24-3.24,7.06.71.94-67.69c-2.21-4.88-35.51-79.33-39.2-126.39-3-38.38,51.83-75.58,78.19-93.46,6.26-4.25,12.18-8.26,12.72-9.37a1.41,1.41,0,0,1,1.2-1c2.32-.22,6.9,7.33,32.81,53.86,18.6,33.39,44,79,49.73,82.14.44-.71,1.74-4.63-.79-24.83-1.83-14.6-5.18-33.81-9.44-54.09-10.15-48.3-22.24-88.94-32.33-108.72-5.55-10.89-18.83-13-36.42-5.79-47.67,19.54-120.71,106.23-90.34,202.26,9.58,30.31,16.36,49,21.31,62.67,11.15,30.79,11.15,30.79,7.08,66.67C2762,1762.31,2761.19,1769.69,2760.25,1778.74Z" transform="translate(-216.76 -165.45)"/><path class="cls-11" d="M2789,1785.44h-43.4c-3,0-5.65-1.7-5.93-3.81L2725.08,1672c-.68-5.06,2.67-9.32,7.45-9.32h69.52c4.78,0,8.12,4.26,7.45,9.32l-14.58,109.62C2794.64,1783.74,2792,1785.44,2789,1785.44Z" transform="translate(-216.76 -165.45)"/><path class="cls-20" d="M2783.84,1781.66h-6.21c-3,0-5.49-1.76-5.44-4l2.2-94.69a8.84,8.84,0,0,1,8.58-8.68h9.42a7.58,7.58,0,0,1,7.46,8.68l-10.06,94.69C2789.55,1779.9,2786.88,1781.66,2783.84,1781.66Z" transform="translate(-216.76 -165.45)"/><path class="cls-19" d="M2737.58,1628.23l.77-1.33a274.69,274.69,0,0,1-6.66-29.71A151.43,151.43,0,0,0,2737.58,1628.23Z" transform="translate(-216.76 -165.45)"/><path class="cls-19" d="M2737.58,1548.1a89.17,89.17,0,0,0-5.48,21.65c12.81-42,84.14-80,88.77-86.42l.83-1.61C2794.9,1474.24,2752.06,1511.89,2737.58,1548.1Z" transform="translate(-216.76 -165.45)"/><path class="cls-19" d="M2903.4,1616.16a1.21,1.21,0,0,1-1.17-.92l-13-52.73c-10.12-41.32-22.72-92.75-36.86-115.64-2.33-3.77-12.51-8.88-26.93-7.86-19.49,1.38-57.07,14.85-89.7,89.53a1.2,1.2,0,0,1-1.58.63,1.22,1.22,0,0,1-.62-1.59c33.14-75.84,71.7-89.54,91.73-91,15.58-1.1,26.43,4.59,29.15,9,14.33,23.22,26.45,72.68,37.14,116.33l13,52.73a1.2,1.2,0,0,1-.87,1.45A1,1,0,0,1,2903.4,1616.16Z" transform="translate(-216.76 -165.45)"/><path class="cls-19" d="M2865.38,1547.37h-.14a1.2,1.2,0,0,1-1-1.33c0-.43,4.91-43.78-6.49-89.36a1.2,1.2,0,1,1,2.33-.58c11.51,46,6.6,89.78,6.55,90.22A1.21,1.21,0,0,1,2865.38,1547.37Z" transform="translate(-216.76 -165.45)"/><path class="cls-19" d="M2852,1520.58h-.14a1.2,1.2,0,0,1-1-1.33c0-.4,4.65-40.09,1.44-72.88a1.2,1.2,0,0,1,2.39-.24c3.23,33.06-1.4,73-1.45,73.4A1.2,1.2,0,0,1,2852,1520.58Z" transform="translate(-216.76 -165.45)"/><path class="cls-19" d="M2806.37,1307.69a1.2,1.2,0,0,1-.52-2.28c.34-.17,34.65-17,54.49-53.8a1.2,1.2,0,0,1,2.12,1.14c-20.23,37.56-55.22,54.65-55.57,54.82A1.23,1.23,0,0,1,2806.37,1307.69Z" transform="translate(-216.76 -165.45)"/><path class="cls-19" d="M2781,1351.14a1.2,1.2,0,0,1-.24-2.38c.28-.06,28.39-6.08,61.76-33.06a1.2,1.2,0,1,1,1.51,1.86c-33.87,27.38-62.5,33.49-62.78,33.55A1.07,1.07,0,0,1,2781,1351.14Z" transform="translate(-216.76 -165.45)"/><path class="cls-19" d="M2760.08,1393.16c-.49,0-.78,0-.87,0a1.2,1.2,0,0,1,.18-2.39c.19,0,19.56,1.07,50.6-22.21a1.2,1.2,0,1,1,1.44,1.92C2782.93,1391.83,2764.28,1393.16,2760.08,1393.16Z" transform="translate(-216.76 -165.45)"/><path class="cls-2" d="M394,1772.09s-276.45-497.87-69.52-614c165.1-92.68,309.92,69.51,486.6-43.45,227.94-145.73,400.74-48.17,524.24,133.24C1428,1384,1477.08,1472,1523.57,1578c72.41,165.09-81.1,202.75-81.1,202.75Z" transform="translate(-216.76 -165.45)"/><path class="cls-7" d="M1157.8,1775.34l-126,.22c-1.8,0-3.3-1.82-3.41-4.06s1.23-4.19,3-4.35l125.53-11.28c10.19-.91,19.47,3,19.74,8.85S1168,1775.32,1157.8,1775.34Z" transform="translate(-216.76 -165.45)"/><path class="cls-9" d="M994.62,1757.49c4.34-1.08,12.31-24.86,12.31-24.86s-91-30.69-129.62-50.69l-53.77,62.21C892.61,1761.35,991.39,1758.3,994.62,1757.49Z" transform="translate(-216.76 -165.45)"/><path class="cls-9" d="M980.62,1723.22c22.39,5.79,58-8.69,64.69-7.24s34.5,15.93,41.16,23.17,30.27,29.69,26,31.13-33.9-20.27-37.53-21-5.45,4.34-35.11,10.13-65.52-9.17-65.52-9.17Z" transform="translate(-216.76 -165.45)"/><path class="cls-4" d="M1016.25,1745.66s34.51-8.69,38.74-7.24,30,7.24,47.83,27.52c-17-5.07-41.17-6.52-47.83-6.52S1016.25,1745.66,1016.25,1745.66Z" transform="translate(-216.76 -165.45)"/><path class="cls-9" d="M1024.5,1731.18c14.73,18.83,52.14,24.62,57.8,31.14s-13.62,3.75-23.8,2.89c-25.9-2.17-44,8.33-65,1.82s-25.71-22.09-25.71-22.09Z" transform="translate(-216.76 -165.45)"/><path class="cls-20" d="M748.35,1397c-66.46,32.66-96.87,56.55-117.51,145.61S609.12,1716.37,620,1779.36c73.77,2.14,285.21,10.1,285.21,10.1s-4-129.33-25.63-231.67c-20.64-97.74-50-135.76-74.94-153.13S748.35,1397,748.35,1397Z" transform="translate(-216.76 -165.45)"/><path class="cls-21" d="M764.43,1700.07c-23.82-23.89-17.37-185.72-56.47-258.49l-72.77,135.76-22,113c-.19,32.63,2.26,62.74,6.79,89.06a2.89,2.89,0,0,0,3.11,2.37c60.08-5.26,63.42-31.37,255.31-60.33C882.93,1720.72,780.64,1716.33,764.43,1700.07Z" transform="translate(-216.76 -165.45)"/><path class="cls-16" d="M742,1397c-8.42,19.65,8.69,45.38,35.72,65.65s43.44,9.17,42-6.76-2.9-32.82-9.18-43-56.48-18.83-56.48-18.83S743.47,1393.63,742,1397Z" transform="translate(-216.76 -165.45)"/><path class="cls-9" d="M774.13,1298.53,748.35,1397a22.56,22.56,0,0,0,1.88,20c10.5,17,33.08,49.53,49.24,45.22,21.72-5.79,7.24-46.34,7.24-46.34l29-102.11Z" transform="translate(-216.76 -165.45)"/><path class="cls-4" d="M813.62,1304.6l-25.73-10.41-7.73,20.1c3.54,85.57,14.44,120.49,31.18,130.23.9-13.2-4.63-28.68-4.63-28.68l21-76Z" transform="translate(-216.76 -165.45)"/><path class="cls-9" d="M885.09,1343.18c-5,34-18.41,63.1-42.68,59.52s-65.95-32-60.93-66,59.51-74.68,83.78-71.1S890.11,1309.19,885.09,1343.18Z" transform="translate(-216.76 -165.45)"/><path class="cls-9" d="M700.35,1470.91c1.94-7.72-29-12.33-33.89-6.08-48.64,61.85-124.28,228.94-107.3,259.14,19.55,34.75,230.17-10.89,234.52-12s-7.6-33.67-7.6-33.67-118,2.18-138-11.22C710,1550.89,685.69,1529.39,700.35,1470.91Z" transform="translate(-216.76 -165.45)"/><path class="cls-20" d="M688.41,1436.15C637.32,1459.05,582,1607.76,582,1607.76s13,3.25,55.39,17.37C655,1631,672,1636.45,672,1636.45s40.55-52.62,53.3-93.86C741.76,1489.47,719.9,1422,688.41,1436.15Z" transform="translate(-216.76 -165.45)"/><path class="cls-16" d="M587.45,1593.8c47.78,6.16,76.33,22.8,90.84,34.16,2.18-3,4.82-6.77,7.73-11.06-10-9.42-31.91-26.21-63.71-30.66-12.91-1.8-22.74-3-30.21-3.71C590.34,1586.71,588.78,1590.5,587.45,1593.8Z" transform="translate(-216.76 -165.45)"/><path class="cls-16" d="M598.41,1567.9q-1.23,2.79-2.38,5.44c42-1.68,82.24,18.76,92.41,31.25l3.19,3.9q1.57-2.41,3.2-5c-6.88-6.78-19.11-17.67-31.49-23.07C638,1569.39,601.67,1568,598.41,1567.9Z" transform="translate(-216.76 -165.45)"/><polygon class="cls-7" points="663.09 1555.47 609.5 1555.47 601.54 1455.42 671.78 1455.42 663.09 1555.47"/><path class="cls-9" d="M779.56,1678.69c14.84-.37,39.1-17.38,47.43-22.09s55.39-14.84,57.56-9.77-39.46,15.56-39.46,15.56l31.14,1.45s9,13.76,9.77,22.81-2.9,22.09-2.9,22.09l-13.75-12.31s-11.23,6.15-25.35,14.48-39.46,3.26-50.32,1.08-36.21-10.13-36.21-10.13Z" transform="translate(-216.76 -165.45)"/><path class="cls-4" d="M585.5,1674s24-13.88,48.15-10.5c13.83,1.94,15.33,4.19,14.48,3.62q4.49-8.41,8.38-16.18C643.93,1651.5,611.7,1654.9,585.5,1674Z" transform="translate(-216.76 -165.45)"/><path class="cls-5" d="M1343.57,1503.45V1750c0,8.2-7.73,14.84-17.26,14.84h-51.77c-8.83,0-16,6.16-16,13.76h74.5c16,0,29-11.18,29-25V1503.45Z" transform="translate(-216.76 -165.45)"/><path class="cls-33" d="M1305.71,1714.61l-8.22-1.57c-5.43-1-8.88-5.69-7.68-10.36l64.42-250.27c1.21-4.66,6.63-7.64,12-6.6l8.22,1.56c5.42,1,8.88,5.7,7.68,10.36L1317.75,1708C1316.55,1712.67,1311.13,1715.64,1305.71,1714.61Z" transform="translate(-216.76 -165.45)"/><path class="cls-7" d="M1308,1715l-1-.19c-4.19-.8-6.86-4.4-5.94-8l65.42-254.13c.93-3.61,5.12-5.9,9.31-5.1l1,.18c4.19.8,6.86,4.4,5.93,8l-65.41,254.14C1316.33,1713.54,1312.14,1715.83,1308,1715Z" transform="translate(-216.76 -165.45)"/><path class="cls-8" d="M1479.45,1792.89H372.83a9.27,9.27,0,1,1,0-18.54H1479.45a9.27,9.27,0,1,1,0,18.54Z" transform="translate(-216.76 -165.45)"/><path class="cls-9" d="M785.29,1256.07c-50.15,31.1-18.41,64.74-31.74,122.5,8.19,2.81,17.14-13.33,22.85-26s10.79-31.1,12.69-30.47,5.08,29.2,5.08,29.2l7.62,3.81s10.79-19,10.15-23.49-9.52-26,1.27-36.18c6.94-6.52,35.55,7.62,35.55,7.62l-27.93-40Z" transform="translate(-216.76 -165.45)"/><path class="cls-34" d="M785.29,1256.07c-50.15,31.1-18.41,64.74-31.74,122.5,8.19,2.81,17.14-13.33,22.85-26s10.79-31.1,12.69-30.47,5.08,29.2,5.08,29.2l7.62,3.81s10.79-19,10.15-23.49-9.52-26,1.27-36.18c6.94-6.52,35.55,7.62,35.55,7.62l-27.93-40Z" transform="translate(-216.76 -165.45)"/><path class="cls-8" d="M895.09,1289.71c-2.54,30.47-49.76,20.93-71.72-6.34-21-26-38.18-8.09-59,.63-34.91,14.6,4.44-69.82,74.9-56.49C892.1,1237.51,896.78,1269.43,895.09,1289.71Z" transform="translate(-216.76 -165.45)"/><path class="cls-9" d="M790.12,1322.07c2.17,11.36-2.08,21.71-9.48,23.13s-15.16-6.66-17.33-18,2.08-21.72,9.49-23.13S788,1310.7,790.12,1322.07Z" transform="translate(-216.76 -165.45)"/><rect class="cls-15" x="857.21" y="1071.93" width="255.23" height="152.05" rx="5.07"/><rect class="cls-16" x="865.03" y="1096.39" width="239.59" height="122.94" rx="4.42"/><rect class="cls-16" x="867.76" y="1080.52" width="9.51" height="8.56" rx="2.06"/><rect class="cls-16" x="885.05" y="1080.52" width="9.51" height="8.56" rx="2.06"/><rect class="cls-16" x="902.35" y="1080.52" width="9.51" height="8.56" rx="2.06"/><path class="cls-15" d="M1313.26,1377.53H1089.92V1269.08h223.34Zm-222.54-.8h221.74V1269.88H1090.72Z" transform="translate(-216.76 -165.45)"/><rect class="cls-15" x="873.56" y="1189.75" width="222.54" height="0.8"/><rect class="cls-15" x="873.56" y="1168.22" width="222.54" height="0.8"/><rect class="cls-15" x="873.56" y="1146.69" width="222.54" height="0.8"/><rect class="cls-15" x="873.56" y="1125.16" width="222.54" height="0.8"/><rect class="cls-15" x="1063.91" y="1104.03" width="0.8" height="107.65"/><rect class="cls-15" x="1032.12" y="1104.03" width="0.8" height="107.65"/><rect class="cls-15" x="1000.32" y="1104.03" width="0.8" height="107.65"/><rect class="cls-15" x="968.53" y="1104.03" width="0.8" height="107.65"/><rect class="cls-15" x="936.74" y="1104.03" width="0.8" height="107.65"/><rect class="cls-15" x="904.95" y="1104.03" width="0.8" height="107.65"/><path class="cls-13" d="M1304.53,1283.08h-7.48a5.19,5.19,0,0,1,0-10.38h7.48a5.19,5.19,0,1,1,0,10.38Z" transform="translate(-216.76 -165.45)"/><rect class="cls-13" x="1075.1" y="1150.69" width="17.86" height="10.38" rx="2.47"/><rect class="cls-15" x="908.56" y="1128.61" width="24.62" height="15.33" rx="3.53"/><rect class="cls-16" x="912.03" y="1130.77" width="17.68" height="11.01" rx="2.54"/><rect class="cls-15" x="1036" y="1193.05" width="24.62" height="15.33" rx="3.53"/><rect class="cls-16" x="1039.47" y="1195.21" width="17.68" height="11.01" rx="2.54"/><path class="cls-15" d="M1212.21,1298.53h-13.76a1.69,1.69,0,0,1,0-3.38h13.76a1.69,1.69,0,1,1,0,3.38Z" transform="translate(-216.76 -165.45)"/><path class="cls-15" d="M1212.21,1303.83h-13.76a1.69,1.69,0,1,1,0-3.37h13.76a1.69,1.69,0,1,1,0,3.37Z" transform="translate(-216.76 -165.45)"/><path class="cls-15" d="M1181.8,1362.61H1168a1.69,1.69,0,0,1,0-3.38h13.76a1.69,1.69,0,0,1,0,3.38Z" transform="translate(-216.76 -165.45)"/><path class="cls-15" d="M1181.8,1367.92H1168a1.69,1.69,0,0,1,0-3.38h13.76a1.69,1.69,0,0,1,0,3.38Z" transform="translate(-216.76 -165.45)"/><path class="cls-15" d="M1110.47,1322.42h-13.76a1.69,1.69,0,0,1,0-3.38h13.76a1.69,1.69,0,0,1,0,3.38Z" transform="translate(-216.76 -165.45)"/><path class="cls-15" d="M1110.47,1327.73h-13.76a1.69,1.69,0,0,1,0-3.38h13.76a1.69,1.69,0,1,1,0,3.38Z" transform="translate(-216.76 -165.45)"/><path class="cls-15" d="M1243.34,1298.53h-13.75a1.69,1.69,0,1,1,0-3.38h13.75a1.69,1.69,0,1,1,0,3.38Z" transform="translate(-216.76 -165.45)"/><path class="cls-15" d="M1243.34,1303.83h-13.75a1.69,1.69,0,1,1,0-3.37h13.75a1.69,1.69,0,1,1,0,3.37Z" transform="translate(-216.76 -165.45)"/><rect class="cls-17" x="908.2" y="1172.18" width="26.79" height="15.56" rx="3.21"/><path class="cls-16" d="M1136.91,1350.63h-.06a1.62,1.62,0,0,1-1.14-.55l-3.81-4.33a1.6,1.6,0,1,1,2.4-2.11l2.7,3.06,6.93-6.79a1.6,1.6,0,1,1,2.24,2.29l-8.14,8A1.62,1.62,0,0,1,1136.91,1350.63Z" transform="translate(-216.76 -165.45)"/><rect class="cls-17" x="1003.41" y="1106.65" width="26.79" height="15.56" rx="3.21"/><path class="cls-16" d="M1232.13,1285.09h-.06a1.57,1.57,0,0,1-1.14-.54l-3.82-4.33a1.6,1.6,0,0,1,2.41-2.11l2.69,3.06,6.94-6.79a1.6,1.6,0,1,1,2.24,2.29l-8.14,8A1.61,1.61,0,0,1,1232.13,1285.09Z" transform="translate(-216.76 -165.45)"/><path class="cls-15" d="M1240.09,1344.87a7.25,7.25,0,1,1-7.25-7.24A7.25,7.25,0,0,1,1240.09,1344.87Z" transform="translate(-216.76 -165.45)"/><path class="cls-15" d="M1146.31,1367a7.24,7.24,0,1,1-7.24-7.24A7.24,7.24,0,0,1,1146.31,1367Z" transform="translate(-216.76 -165.45)"/><rect class="cls-15" x="821.22" y="1201.98" width="152.83" height="87.39" rx="2.51"/><rect class="cls-16" x="824.57" y="1205.83" width="146.13" height="79.7" rx="2.34"/><rect class="cls-15" x="828.61" y="1210.71" width="138.05" height="69.93" rx="2.63"/><circle class="cls-16" cx="897.64" cy="1245.68" r="24.26"/><path class="cls-15" d="M1135.29,1411.13a20.89,20.89,0,1,1-20.89-20.89A20.89,20.89,0,0,1,1135.29,1411.13Z" transform="translate(-216.76 -165.45)"/><polygon class="cls-16" points="907.94 1244.56 900.3 1248.97 892.66 1253.38 892.66 1244.56 892.66 1235.74 900.3 1240.15 907.94 1244.56"/><path class="cls-15" d="M1028.29,1158.05H932.71a4.35,4.35,0,1,1,0-8.69h95.58a4.35,4.35,0,0,1,0,8.69Z" transform="translate(-216.76 -165.45)"/><path class="cls-15" d="M1278.1,1525.17h-95.58a4.35,4.35,0,1,1,0-8.69h95.58a4.35,4.35,0,1,1,0,8.69Z" transform="translate(-216.76 -165.45)"/><path class="cls-15" d="M1278.1,1541.1h-95.58a4.35,4.35,0,1,1,0-8.69h95.58a4.35,4.35,0,1,1,0,8.69Z" transform="translate(-216.76 -165.45)"/><path class="cls-15" d="M1278.1,1558.48h-95.58a4.35,4.35,0,1,1,0-8.69h95.58a4.35,4.35,0,1,1,0,8.69Z" transform="translate(-216.76 -165.45)"/><path class="cls-15" d="M1089.84,1174.71H932.71a4.35,4.35,0,1,1,0-8.69h157.13a4.35,4.35,0,0,1,0,8.69Z" transform="translate(-216.76 -165.45)"/><path class="cls-19" d="M411.45,1415.5c-25,22.81-14.12,45.62,4.35,88s21.72,198.75,21.72,198.75l-15.21-2.17s2.18-160.74-18.46-204.18-29.33-65.17-47.79-51.05S411.45,1415.5,411.45,1415.5Z" transform="translate(-216.76 -165.45)"/><path class="cls-17" d="M425.17,1386c-3-13.51-21.05-28.14-45.14-40.54,3.58,19.93,15.07,52.53,3.18,59.21-16,9-1.56-36.49-7.74-61.5a297.6,297.6,0,0,0-74.9-24.57c0,.09.06.18.1.27,14.12,35.84,32.58,50,25,55.39-5.72,4.09-24.35-37.31-48.95-58.53-18.47-1-34.09,1.51-43.33,8.83-14.28,11.31-23.87,21.34-9.5,55.78a64.49,64.49,0,0,0,31.18,11.3c32.59,3.26,47.79,4.35,25,15.21-11.16,5.31-29.88-.3-45.06-3.73,4.92,9.08,11,19.35,18.33,31a115.07,115.07,0,0,0,15.26,19.43c10.51,2,19.66,2,24.51,0,15.2-6.52,54.3-27.15,64.08-18.47,9.56,8.51-72.41,13.89-66.73,35.51,39.73,22.89,85.2,12,93.24-9C394.45,1433.3,434.31,1426.66,425.17,1386Z" transform="translate(-216.76 -165.45)"/><path class="cls-19" d="M343,1540.41c43.44-32.59,88-2.18,110.78,32.58s6.52,113,6.52,113-8.69,0-8.69-3.26,23.89-92.31-32.58-132.5c-35.34-25.14-60.83-13-64.08-1.09s14.11,33.67,14.11,33.67Z" transform="translate(-216.76 -165.45)"/><path class="cls-17" d="M443,1473.43c-43.44,0-57.56,67.34-45.62,106.44s28.24,111.86,28.24,111.86l10.86-10.86s-41.27-102.09-31.49-147.71S438.6,1480,443,1480,443,1473.43,443,1473.43Z" transform="translate(-216.76 -165.45)"/><path class="cls-19" d="M406.51,1580.17a31.44,31.44,0,0,0-11.43-9.61,86.18,86.18,0,0,0,2.25,9.31c5.45,17.81,11.79,42.61,17.09,64.34l2.36-13.68c.28-1.57.49-3.26.63-5.06A422.16,422.16,0,0,1,406.51,1580.17Z" transform="translate(-216.76 -165.45)"/><path class="cls-17" d="M394.63,1580.5c-82.54-34.76-39.05-82.45-111.82-51-5.12,2.22-11.37,7.82-17.63,15.53a54.14,54.14,0,0,0,23.06,1.85c21.72-3.26,14.12,14.12-21.72,18.47a80.37,80.37,0,0,0-16.8,3.54c-17.07,32.79-24.77,76,11.37,91,7.12,2.95,15.92,4.64,25.72,5.27,11.15-8.86-2.73-60.14,14.46-53.06,16.51,6.79-5.17,44-2.2,53.32,16.29-.29,34.33-3,51.57-7.22,6.82-3.83,12-9,13.63-15.69,5.43-22.81-30.41-36.93-31.5-56.48-1-18,13.14,39.54,50.59,48C417.22,1618.21,433.22,1596.74,394.63,1580.5Z" transform="translate(-216.76 -165.45)"/><path class="cls-17" d="M453.45,1519c-8.69-18.46,14.12-22.8,13-8.68-1,12.51-1.07,42.92,11.76,51.2,22.13-2.4,52.24-11.31,75-24.91a9.19,9.19,0,0,0-1-5.66c-9.77-19.55-72.77-35.84-53.22-42.36,15.57-5.19,42.86,25.45,64.84,40.88,13.21-10,22.05-22,22.05-35.29,0-18-21.92-38.47-50.27-48.23-12.77,1.28-24.62,8.26-43.13,18.75-27.35,15.5-21-9.56,4.83-24.43-22.32,1.15-44.58,10.69-61,33.48,0,0,1.55,9.74-8.76,24.81-28.12,41.1,4.33,65.09,43.13,63.53C468.56,1551.3,459.45,1531.8,453.45,1519Z" transform="translate(-216.76 -165.45)"/><path class="cls-19" d="M345.64,1538.56c-21.24,16.42-44.83,35.61-73.8,48.64s-23.17,55.51-23.17,55.51-4.34-36.68,19.8-49.24,40.06-27.51,58.41-30.41a264.37,264.37,0,0,0,28.48-5.79s-5.8-11.59-2.42-15.93S345.64,1538.56,345.64,1538.56Z" transform="translate(-216.76 -165.45)"/><path class="cls-19" d="M241,1345.83c77.72,20.76,134.68,70.48,145.3,82.55s10.62,15.45,10.62,15.45l-8.2,15.45-3.87-1.94s6.28-13-10.13-29.92c-28.31-29.14-62.76-52.14-86.41-62.28S241,1345.83,241,1345.83Z" transform="translate(-216.76 -165.45)"/><path class="cls-13" d="M170.8,1504.12H277a0,0,0,0,1,0,0v68.22a38.23,38.23,0,0,1-38.23,38.23H209a38.23,38.23,0,0,1-38.23-38.23v-68.22A0,0,0,0,1,170.8,1504.12Z"/></svg>